<?xml version="1.0" ?><!DOCTYPE svg  PUBLIC '-//W3C//DTD SVG 1.1//EN'  'http://www.w3.org/Graphics/SVG/1.1/DTD/svg11.dtd'><svg enable-background="new 0 0 512 512" height="512px" id="Layer_1" version="1.1" viewBox="0 0 512 512" width="512px" xml:space="preserve" xmlns="http://www.w3.org/2000/svg" xmlns:xlink="http://www.w3.org/1999/xlink"><path d="M512.002,432c0,44.182-35.816,80-80,80H80c-44.183,0-80-35.818-80-80V80C0,35.817,35.817,0,80,0h352.002  c44.184,0,80,35.817,80,80V432z" fill="#E8E8E8"/><path d="M512.002,432V250.357L398.08,137.298l-11.434,5.246l-219.296-5.246l-51.414,9.443v203.557l-5.756,20.848  L251.928,512h180.074C476.186,512,512.002,476.182,512.002,432z" fill="#D8D8D8"/><path d="M370.466,127.227h-228.93c-23.704,0-42.924,19.219-42.924,42.924V341.85  c0,23.703,19.22,42.924,42.924,42.924h228.93c23.705,0,42.925-19.221,42.925-42.924V170.151  C413.391,146.446,394.171,127.227,370.466,127.227z M370.466,155.843c1.642,0,3.193,0.332,4.66,0.84l-119.125,95.299  l-119.126-95.299c1.47-0.508,3.02-0.84,4.661-0.84H370.466z M370.466,356.158h-228.93c-7.905,0-14.308-6.404-14.308-14.309V185.615  l119.833,95.865c2.611,2.092,5.778,3.137,8.939,3.137s6.331-1.045,8.939-3.137l119.834-95.865V341.85  C384.774,349.754,378.371,356.158,370.466,356.158z" fill="#FFFFFF"/></svg>